<svg width="131" height="20" viewBox="0 0 131 20" fill="none" xmlns="http://www.w3.org/2000/svg">
<mask id="mask0" mask-type="alpha" maskUnits="userSpaceOnUse" x="0" y="0" width="131" height="20">
<path d="M128 0H3C1.34315 0 0 1.34315 0 3V17C0 18.6569 1.34315 20 3 20H128C129.657 20 131 18.6569 131 17V3C131 1.34315 129.657 0 128 0Z" fill="white"/>
</mask>
<g mask="url(#mask0)">
<path d="M0 0H38V20H0V0Z" fill="#555555"/>
<path d="M38.25 0.25H128C129.519 0.25 130.75 1.48122 130.75 3V17C130.75 18.5188 129.519 19.75 128 19.75H38.25V0.25Z" fill="#F8F8F8" stroke="url(#paint0_linear)" stroke-width="0.5"/>
<path d="M122.714 8.63944C122.575 8.31862 122.376 8.0279 122.126 7.78355C121.876 7.53846 121.581 7.3437 121.258 7.20985C120.922 7.0705 120.562 6.99917 120.199 7.00001C119.689 7.00001 119.192 7.13956 118.76 7.40315C118.657 7.4662 118.559 7.53546 118.466 7.61092C118.373 7.53546 118.274 7.4662 118.171 7.40315C117.739 7.13956 117.242 7.00001 116.732 7.00001C116.365 7.00001 116.009 7.0703 115.674 7.20985C115.349 7.34423 115.056 7.53753 114.805 7.78355C114.555 8.02762 114.355 8.31841 114.217 8.63944C114.073 8.97332 114 9.32788 114 9.69277C114 10.037 114.07 10.3957 114.21 10.7606C114.327 11.0655 114.494 11.3818 114.708 11.7012C115.047 12.2067 115.513 12.7339 116.092 13.2683C117.051 14.1542 118.001 14.7661 118.042 14.7909L118.287 14.9481C118.395 15.0173 118.535 15.0173 118.643 14.9481L118.888 14.7909C118.929 14.7651 119.878 14.1542 120.838 13.2683C121.417 12.7339 121.883 12.2067 122.222 11.7012C122.436 11.3818 122.604 11.0655 122.72 10.7606C122.86 10.3957 122.93 10.037 122.93 9.69277C122.931 9.32788 122.858 8.97332 122.714 8.63944V8.63944Z" fill="#010101" fill-opacity="0.15"/>
<path d="M122.714 7.63944C122.575 7.31862 122.376 7.0279 122.126 6.78355C121.876 6.53846 121.581 6.3437 121.258 6.20985C120.922 6.0705 120.562 5.99917 120.199 6.00001C119.689 6.00001 119.192 6.13956 118.76 6.40315C118.657 6.4662 118.559 6.53546 118.466 6.61092C118.373 6.53546 118.274 6.4662 118.171 6.40315C117.739 6.13956 117.242 6.00001 116.732 6.00001C116.365 6.00001 116.009 6.0703 115.674 6.20985C115.349 6.34423 115.056 6.53753 114.805 6.78355C114.555 7.02762 114.355 7.31841 114.217 7.63944C114.073 7.97332 114 8.32788 114 8.69277C114 9.03699 114.07 9.39568 114.21 9.76057C114.327 10.0655 114.494 10.3818 114.708 10.7012C115.047 11.2067 115.513 11.7339 116.092 12.2683C117.051 13.1542 118.001 13.7661 118.042 13.7909L118.287 13.9481C118.395 14.0173 118.535 14.0173 118.643 13.9481L118.888 13.7909C118.929 13.7651 119.878 13.1542 120.838 12.2683C121.417 11.7339 121.883 11.2067 122.222 10.7012C122.436 10.3818 122.604 10.0655 122.72 9.76057C122.86 9.39568 122.93 9.03699 122.93 8.69277C122.931 8.32788 122.858 7.97332 122.714 7.63944V7.63944Z" fill="url(#paint1_linear)"/>
<path d="M0 0L131 0V20H0V0Z" fill="url(#paint2_linear)"/>
<path d="M9.25597 15V9.95654H8.33751V9.18848H9.25597V8.59229C9.25597 7.96924 9.42247 7.48763 9.75548 7.14746C10.0885 6.80729 10.5594 6.63721 11.1681 6.63721C11.3972 6.63721 11.6246 6.66764 11.8502 6.72852L11.7965 7.53418C11.6282 7.50195 11.4492 7.48584 11.2594 7.48584C10.9371 7.48584 10.6883 7.58073 10.5128 7.77051C10.3373 7.95671 10.2496 8.22526 10.2496 8.57617V9.18848H11.4903V9.95654H10.2496V15H9.25597ZM15.4005 10.0801C15.2501 10.055 15.0872 10.0425 14.9117 10.0425C14.26 10.0425 13.8178 10.32 13.5851 10.875V15H12.5914V9.18848H13.5582L13.5743 9.85986C13.9002 9.34066 14.3621 9.08105 14.9601 9.08105C15.1534 9.08105 15.3002 9.10612 15.4005 9.15625V10.0801ZM15.9483 12.0405C15.9483 11.4712 16.0594 10.9591 16.2814 10.5044C16.5069 10.0496 16.8185 9.69873 17.2159 9.45166C17.617 9.20459 18.0735 9.08105 18.5856 9.08105C19.3769 9.08105 20.0161 9.35498 20.503 9.90283C20.9936 10.4507 21.2389 11.1794 21.2389 12.0889V12.1587C21.2389 12.7244 21.1297 13.2329 20.9112 13.6841C20.6964 14.1317 20.3867 14.4808 19.982 14.7314C19.581 14.9821 19.1191 15.1074 18.5963 15.1074C17.8085 15.1074 17.1694 14.8335 16.6788 14.2856C16.1918 13.7378 15.9483 13.0127 15.9483 12.1104V12.0405ZM16.9474 12.1587C16.9474 12.8032 17.096 13.3206 17.3932 13.7109C17.694 14.1012 18.095 14.2964 18.5963 14.2964C19.1012 14.2964 19.5022 14.0994 19.7994 13.7056C20.0966 13.3081 20.2452 12.7531 20.2452 12.0405C20.2452 11.4032 20.093 10.8875 19.7887 10.4937C19.4879 10.0962 19.0869 9.89746 18.5856 9.89746C18.095 9.89746 17.6993 10.0926 17.3985 10.4829C17.0978 10.8732 16.9474 11.4318 16.9474 12.1587ZM23.4195 9.18848L23.4464 9.83301C23.8725 9.33171 24.4472 9.08105 25.1705 9.08105C25.9833 9.08105 26.5366 9.39258 26.8302 10.0156C27.0235 9.73633 27.2742 9.51074 27.5821 9.33887C27.8937 9.16699 28.2607 9.08105 28.6832 9.08105C29.958 9.08105 30.6061 9.75602 30.6275 11.106V15H29.6339V11.165C29.6339 10.7497 29.539 10.4399 29.3492 10.2358C29.1594 10.0282 28.8408 9.92432 28.3932 9.92432C28.0244 9.92432 27.7182 10.0353 27.4747 10.2573C27.2312 10.4757 27.0898 10.7712 27.0504 11.1436V15H26.0514V11.1919C26.0514 10.3468 25.6378 9.92432 24.8107 9.92432C24.159 9.92432 23.7132 10.2018 23.4733 10.7568V15H22.4796V9.18848H23.4195Z" fill="#010101" fill-opacity="0.3"/>
<path d="M8.55859 14V8.95654H7.64014V8.18848H8.55859V7.59229C8.55859 6.96924 8.7251 6.48763 9.05811 6.14746C9.39111 5.80729 9.86198 5.63721 10.4707 5.63721C10.6999 5.63721 10.9272 5.66764 11.1528 5.72852L11.0991 6.53418C10.9308 6.50195 10.7518 6.48584 10.562 6.48584C10.2397 6.48584 9.99089 6.58073 9.81543 6.77051C9.63997 6.95671 9.55225 7.22526 9.55225 7.57617V8.18848H10.793V8.95654H9.55225V14H8.55859ZM14.7031 9.08008C14.5527 9.05501 14.3898 9.04248 14.2144 9.04248C13.5627 9.04248 13.1204 9.31999 12.8877 9.875V14H11.894V8.18848H12.8608L12.877 8.85986C13.2028 8.34066 13.6647 8.08105 14.2627 8.08105C14.4561 8.08105 14.6029 8.10612 14.7031 8.15625V9.08008ZM15.251 11.0405C15.251 10.4712 15.362 9.95915 15.584 9.50439C15.8096 9.04964 16.1211 8.69873 16.5186 8.45166C16.9196 8.20459 17.3761 8.08105 17.8882 8.08105C18.6795 8.08105 19.3187 8.35498 19.8057 8.90283C20.2962 9.45068 20.5415 10.1794 20.5415 11.0889V11.1587C20.5415 11.7244 20.4323 12.2329 20.2139 12.6841C19.999 13.1317 19.6893 13.4808 19.2847 13.7314C18.8836 13.9821 18.4217 14.1074 17.8989 14.1074C17.1112 14.1074 16.472 13.8335 15.9814 13.2856C15.4945 12.7378 15.251 12.0127 15.251 11.1104V11.0405ZM16.25 11.1587C16.25 11.8032 16.3986 12.3206 16.6958 12.7109C16.9966 13.1012 17.3976 13.2964 17.8989 13.2964C18.4038 13.2964 18.8049 13.0994 19.1021 12.7056C19.3993 12.3081 19.5479 11.7531 19.5479 11.0405C19.5479 10.4032 19.3957 9.88753 19.0913 9.49365C18.7905 9.09619 18.3895 8.89746 17.8882 8.89746C17.3976 8.89746 17.002 9.09261 16.7012 9.48291C16.4004 9.87321 16.25 10.4318 16.25 11.1587ZM22.7222 8.18848L22.749 8.83301C23.1751 8.33171 23.7498 8.08105 24.4731 8.08105C25.286 8.08105 25.8392 8.39258 26.1328 9.01562C26.3262 8.73633 26.5768 8.51074 26.8848 8.33887C27.1963 8.16699 27.5633 8.08105 27.9858 8.08105C29.2606 8.08105 29.9087 8.75602 29.9302 10.106V14H28.9365V10.165C28.9365 9.74967 28.8416 9.43994 28.6519 9.23584C28.4621 9.02816 28.1434 8.92432 27.6958 8.92432C27.327 8.92432 27.0208 9.03532 26.7773 9.25732C26.5339 9.47575 26.3924 9.77116 26.353 10.1436V14H25.354V10.1919C25.354 9.34684 24.9404 8.92432 24.1133 8.92432C23.4616 8.92432 23.0158 9.20182 22.7759 9.75684V14H21.7822V8.18848H22.7222Z" fill="white"/>
<path d="M48.7217 13.2974L50.709 7.17969H52.2021L49.3877 15H48.0718L45.2681 7.17969H46.7559L48.7217 13.2974ZM54.3506 15H53.0454V9.18848H54.3506V15ZM52.9648 7.6792C52.9648 7.47868 53.0275 7.31217 53.1528 7.17969C53.2817 7.0472 53.4644 6.98096 53.7007 6.98096C53.937 6.98096 54.1196 7.0472 54.2485 7.17969C54.3774 7.31217 54.4419 7.47868 54.4419 7.6792C54.4419 7.87614 54.3774 8.04085 54.2485 8.17334C54.1196 8.30225 53.937 8.3667 53.7007 8.3667C53.4644 8.3667 53.2817 8.30225 53.1528 8.17334C53.0275 8.04085 52.9648 7.87614 52.9648 7.6792ZM58.3359 15.1074C57.5088 15.1074 56.8374 14.8478 56.3218 14.3286C55.8097 13.8058 55.5537 13.1112 55.5537 12.2446V12.0835C55.5537 11.5034 55.6647 10.986 55.8867 10.5312C56.1123 10.0729 56.4274 9.71663 56.832 9.4624C57.2367 9.20817 57.6878 9.08105 58.1855 9.08105C58.9769 9.08105 59.5874 9.3335 60.0171 9.83838C60.4504 10.3433 60.667 11.0576 60.667 11.9814V12.5078H56.8696C56.909 12.9876 57.0684 13.3672 57.3477 13.6465C57.6305 13.9258 57.985 14.0654 58.4111 14.0654C59.0091 14.0654 59.4961 13.8237 59.8721 13.3403L60.5757 14.0117C60.3429 14.359 60.0314 14.6294 59.6411 14.8228C59.2544 15.0125 58.8193 15.1074 58.3359 15.1074ZM58.1802 10.1284C57.8221 10.1284 57.5321 10.2537 57.3101 10.5044C57.0916 10.755 56.952 11.1042 56.8911 11.5518H59.3779V11.4551C59.3493 11.0182 59.2329 10.6888 59.0288 10.4668C58.8247 10.2412 58.5418 10.1284 58.1802 10.1284ZM63.3203 7.77588V9.18848H64.3462V10.1553H63.3203V13.3994C63.3203 13.6214 63.3633 13.7826 63.4492 13.8828C63.5387 13.9795 63.6963 14.0278 63.9219 14.0278C64.0723 14.0278 64.2244 14.0099 64.3784 13.9741V14.9839C64.0812 15.0662 63.7948 15.1074 63.519 15.1074C62.5164 15.1074 62.0151 14.5542 62.0151 13.4478V10.1553H61.0591V9.18848H62.0151V7.77588H63.3203ZM66.5591 9.18848L66.5967 9.85986C67.0264 9.34066 67.5903 9.08105 68.2886 9.08105C69.4989 9.08105 70.1147 9.77393 70.1362 11.1597V15H68.8311V11.2349C68.8311 10.866 68.7505 10.5939 68.5894 10.4185C68.4318 10.2394 68.1722 10.1499 67.8105 10.1499C67.2842 10.1499 66.8921 10.388 66.6343 10.8643V15H65.3291V9.18848H66.5591ZM74.9434 15C74.8861 14.889 74.8359 14.7082 74.793 14.4575C74.3776 14.8908 73.8691 15.1074 73.2676 15.1074C72.6839 15.1074 72.2077 14.9409 71.8389 14.6079C71.4701 14.2749 71.2856 13.8631 71.2856 13.3726C71.2856 12.7531 71.5148 12.2786 71.9731 11.9492C72.4351 11.6162 73.0939 11.4497 73.9497 11.4497H74.75V11.0684C74.75 10.7676 74.6659 10.5277 74.4976 10.3486C74.3293 10.166 74.0732 10.0747 73.7295 10.0747C73.4323 10.0747 73.1888 10.1499 72.999 10.3003C72.8092 10.4471 72.7144 10.6351 72.7144 10.8643H71.4092C71.4092 10.5456 71.5148 10.2484 71.7261 9.97266C71.9373 9.69336 72.2238 9.47493 72.5854 9.31738C72.9507 9.15983 73.3571 9.08105 73.8047 9.08105C74.485 9.08105 75.0275 9.25293 75.4321 9.59668C75.8368 9.93685 76.0444 10.4167 76.0552 11.0361V13.6572C76.0552 14.18 76.1286 14.5972 76.2754 14.9087V15H74.9434ZM73.5093 14.0601C73.7671 14.0601 74.0088 13.9974 74.2344 13.8721C74.4635 13.7467 74.6354 13.5785 74.75 13.3672V12.2715H74.0464C73.563 12.2715 73.1995 12.3556 72.9561 12.5239C72.7126 12.6922 72.5908 12.9303 72.5908 13.2383C72.5908 13.4889 72.6732 13.6895 72.8379 13.8398C73.0062 13.9867 73.23 14.0601 73.5093 14.0601ZM78.6494 9.18848L78.687 9.79541C79.0952 9.31917 79.6538 9.08105 80.3628 9.08105C81.1398 9.08105 81.6715 9.37826 81.958 9.97266C82.3805 9.37826 82.9749 9.08105 83.7412 9.08105C84.3822 9.08105 84.8584 9.2583 85.1699 9.61279C85.485 9.96729 85.6462 10.4901 85.6533 11.1812V15H84.3481V11.2188C84.3481 10.8499 84.2676 10.5796 84.1064 10.4077C83.9453 10.2358 83.6785 10.1499 83.3062 10.1499C83.009 10.1499 82.7655 10.2305 82.5757 10.3916C82.3895 10.5492 82.2588 10.7568 82.1836 11.0146L82.189 15H80.8838V11.1758C80.8659 10.4919 80.5168 10.1499 79.8364 10.1499C79.3136 10.1499 78.943 10.363 78.7246 10.7891V15H77.4194V9.18848H78.6494ZM94.8379 13.2007L95.7617 9.18848H97.0347L95.4502 15H94.376L93.1299 11.0093L91.9053 15H90.8311L89.2412 9.18848H90.5142L91.4541 13.1577L92.6465 9.18848H93.6294L94.8379 13.2007ZM99.2959 15H97.9907V9.18848H99.2959V15ZM97.9102 7.6792C97.9102 7.47868 97.9728 7.31217 98.0981 7.17969C98.2271 7.0472 98.4097 6.98096 98.646 6.98096C98.8823 6.98096 99.0649 7.0472 99.1938 7.17969C99.3228 7.31217 99.3872 7.47868 99.3872 7.6792C99.3872 7.87614 99.3228 8.04085 99.1938 8.17334C99.0649 8.30225 98.8823 8.3667 98.646 8.3667C98.4097 8.3667 98.2271 8.30225 98.0981 8.17334C97.9728 8.04085 97.9102 7.87614 97.9102 7.6792ZM102.357 7.77588V9.18848H103.383V10.1553H102.357V13.3994C102.357 13.6214 102.4 13.7826 102.486 13.8828C102.576 13.9795 102.733 14.0278 102.959 14.0278C103.109 14.0278 103.262 14.0099 103.416 13.9741V14.9839C103.118 15.0662 102.832 15.1074 102.556 15.1074C101.554 15.1074 101.052 14.5542 101.052 13.4478V10.1553H100.096V9.18848H101.052V7.77588H102.357ZM105.671 9.82227C106.097 9.32812 106.636 9.08105 107.288 9.08105C108.527 9.08105 109.155 9.78825 109.173 11.2026V15H107.868V11.251C107.868 10.8499 107.78 10.5671 107.605 10.4023C107.433 10.234 107.179 10.1499 106.842 10.1499C106.319 10.1499 105.929 10.3826 105.671 10.8481V15H104.366V6.75H105.671V9.82227Z" fill="#010101" fill-opacity="0.15"/>
<path d="M48.7217 12.2974L50.709 6.17969H52.2021L49.3877 14H48.0718L45.2681 6.17969H46.7559L48.7217 12.2974ZM54.3506 14H53.0454V8.18848H54.3506V14ZM52.9648 6.6792C52.9648 6.47868 53.0275 6.31217 53.1528 6.17969C53.2817 6.0472 53.4644 5.98096 53.7007 5.98096C53.937 5.98096 54.1196 6.0472 54.2485 6.17969C54.3774 6.31217 54.4419 6.47868 54.4419 6.6792C54.4419 6.87614 54.3774 7.04085 54.2485 7.17334C54.1196 7.30225 53.937 7.3667 53.7007 7.3667C53.4644 7.3667 53.2817 7.30225 53.1528 7.17334C53.0275 7.04085 52.9648 6.87614 52.9648 6.6792ZM58.3359 14.1074C57.5088 14.1074 56.8374 13.8478 56.3218 13.3286C55.8097 12.8058 55.5537 12.1112 55.5537 11.2446V11.0835C55.5537 10.5034 55.6647 9.986 55.8867 9.53125C56.1123 9.07292 56.4274 8.71663 56.832 8.4624C57.2367 8.20817 57.6878 8.08105 58.1855 8.08105C58.9769 8.08105 59.5874 8.3335 60.0171 8.83838C60.4504 9.34326 60.667 10.0576 60.667 10.9814V11.5078H56.8696C56.909 11.9876 57.0684 12.3672 57.3477 12.6465C57.6305 12.9258 57.985 13.0654 58.4111 13.0654C59.0091 13.0654 59.4961 12.8237 59.8721 12.3403L60.5757 13.0117C60.3429 13.359 60.0314 13.6294 59.6411 13.8228C59.2544 14.0125 58.8193 14.1074 58.3359 14.1074ZM58.1802 9.12842C57.8221 9.12842 57.5321 9.25374 57.3101 9.50439C57.0916 9.75505 56.952 10.1042 56.8911 10.5518H59.3779V10.4551C59.3493 10.0182 59.2329 9.6888 59.0288 9.4668C58.8247 9.24121 58.5418 9.12842 58.1802 9.12842ZM63.3203 6.77588V8.18848H64.3462V9.15527H63.3203V12.3994C63.3203 12.6214 63.3633 12.7826 63.4492 12.8828C63.5387 12.9795 63.6963 13.0278 63.9219 13.0278C64.0723 13.0278 64.2244 13.0099 64.3784 12.9741V13.9839C64.0812 14.0662 63.7948 14.1074 63.519 14.1074C62.5164 14.1074 62.0151 13.5542 62.0151 12.4478V9.15527H61.0591V8.18848H62.0151V6.77588H63.3203ZM66.5591 8.18848L66.5967 8.85986C67.0264 8.34066 67.5903 8.08105 68.2886 8.08105C69.4989 8.08105 70.1147 8.77393 70.1362 10.1597V14H68.8311V10.2349C68.8311 9.86605 68.7505 9.59391 68.5894 9.41846C68.4318 9.23942 68.1722 9.1499 67.8105 9.1499C67.2842 9.1499 66.8921 9.38802 66.6343 9.86426V14H65.3291V8.18848H66.5591ZM74.9434 14C74.8861 13.889 74.8359 13.7082 74.793 13.4575C74.3776 13.8908 73.8691 14.1074 73.2676 14.1074C72.6839 14.1074 72.2077 13.9409 71.8389 13.6079C71.4701 13.2749 71.2856 12.8631 71.2856 12.3726C71.2856 11.7531 71.5148 11.2786 71.9731 10.9492C72.4351 10.6162 73.0939 10.4497 73.9497 10.4497H74.75V10.0684C74.75 9.76758 74.6659 9.52767 74.4976 9.34863C74.3293 9.16602 74.0732 9.07471 73.7295 9.07471C73.4323 9.07471 73.1888 9.1499 72.999 9.30029C72.8092 9.4471 72.7144 9.63509 72.7144 9.86426H71.4092C71.4092 9.54557 71.5148 9.24837 71.7261 8.97266C71.9373 8.69336 72.2238 8.47493 72.5854 8.31738C72.9507 8.15983 73.3571 8.08105 73.8047 8.08105C74.485 8.08105 75.0275 8.25293 75.4321 8.59668C75.8368 8.93685 76.0444 9.41667 76.0552 10.0361V12.6572C76.0552 13.18 76.1286 13.5972 76.2754 13.9087V14H74.9434ZM73.5093 13.0601C73.7671 13.0601 74.0088 12.9974 74.2344 12.8721C74.4635 12.7467 74.6354 12.5785 74.75 12.3672V11.2715H74.0464C73.563 11.2715 73.1995 11.3556 72.9561 11.5239C72.7126 11.6922 72.5908 11.9303 72.5908 12.2383C72.5908 12.4889 72.6732 12.6895 72.8379 12.8398C73.0062 12.9867 73.23 13.0601 73.5093 13.0601ZM78.6494 8.18848L78.687 8.79541C79.0952 8.31917 79.6538 8.08105 80.3628 8.08105C81.1398 8.08105 81.6715 8.37826 81.958 8.97266C82.3805 8.37826 82.9749 8.08105 83.7412 8.08105C84.3822 8.08105 84.8584 8.2583 85.1699 8.61279C85.485 8.96729 85.6462 9.49007 85.6533 10.1812V14H84.3481V10.2188C84.3481 9.84993 84.2676 9.57959 84.1064 9.40771C83.9453 9.23584 83.6785 9.1499 83.3062 9.1499C83.009 9.1499 82.7655 9.23047 82.5757 9.3916C82.3895 9.54915 82.2588 9.75684 82.1836 10.0146L82.189 14H80.8838V10.1758C80.8659 9.49186 80.5168 9.1499 79.8364 9.1499C79.3136 9.1499 78.943 9.36296 78.7246 9.78906V14H77.4194V8.18848H78.6494ZM94.8379 12.2007L95.7617 8.18848H97.0347L95.4502 14H94.376L93.1299 10.0093L91.9053 14H90.8311L89.2412 8.18848H90.5142L91.4541 12.1577L92.6465 8.18848H93.6294L94.8379 12.2007ZM99.2959 14H97.9907V8.18848H99.2959V14ZM97.9102 6.6792C97.9102 6.47868 97.9728 6.31217 98.0981 6.17969C98.2271 6.0472 98.4097 5.98096 98.646 5.98096C98.8823 5.98096 99.0649 6.0472 99.1938 6.17969C99.3228 6.31217 99.3872 6.47868 99.3872 6.6792C99.3872 6.87614 99.3228 7.04085 99.1938 7.17334C99.0649 7.30225 98.8823 7.3667 98.646 7.3667C98.4097 7.3667 98.2271 7.30225 98.0981 7.17334C97.9728 7.04085 97.9102 6.87614 97.9102 6.6792ZM102.357 6.77588V8.18848H103.383V9.15527H102.357V12.3994C102.357 12.6214 102.4 12.7826 102.486 12.8828C102.576 12.9795 102.733 13.0278 102.959 13.0278C103.109 13.0278 103.262 13.0099 103.416 12.9741V13.9839C103.118 14.0662 102.832 14.1074 102.556 14.1074C101.554 14.1074 101.052 13.5542 101.052 12.4478V9.15527H100.096V8.18848H101.052V6.77588H102.357ZM105.671 8.82227C106.097 8.32812 106.636 8.08105 107.288 8.08105C108.527 8.08105 109.155 8.78825 109.173 10.2026V14H107.868V10.251C107.868 9.84993 107.78 9.56706 107.605 9.40234C107.433 9.23405 107.179 9.1499 106.842 9.1499C106.319 9.1499 105.929 9.38265 105.671 9.84814V14H104.366V5.75H105.671V8.82227Z" fill="#3F3F3F"/>
</g>
<defs>
<linearGradient id="paint0_linear" x1="85.5" y1="0" x2="85.5" y2="20" gradientUnits="userSpaceOnUse">
<stop stop-color="#E6E6E6"/>
<stop offset="1" stop-color="#CCCCCC"/>
</linearGradient>
<linearGradient id="paint1_linear" x1="118.465" y1="6" x2="118.465" y2="14" gradientUnits="userSpaceOnUse">
<stop stop-color="#FF3333"/>
<stop offset="1" stop-color="#BF2626"/>
</linearGradient>
<linearGradient id="paint2_linear" x1="50" y1="1.90805e-08" x2="50" y2="20" gradientUnits="userSpaceOnUse">
<stop stop-color="#BBBBBB" stop-opacity="0.1"/>
<stop offset="1" stop-opacity="0.1"/>
</linearGradient>
</defs>
</svg>
